<mxfile host="app.diagrams.net" agent="Mozilla/5.0 (Windows NT 10.0; Win64; x64) AppleWebKit/537.36 (KHTML, like Gecko) Chrome/130.0.0.0 Safari/537.36" version="24.8.3">
  <diagram name="Page-1" id="zZ71Oto8_5vC2eiHQZZR">
    <mxGraphModel dx="2122" dy="797" grid="1" gridSize="10" guides="1" tooltips="1" connect="1" arrows="1" fold="1" page="1" pageScale="1" pageWidth="850" pageHeight="1100" math="0" shadow="0">
      <root>
        <mxCell id="0" />
        <mxCell id="1" parent="0" />
        <mxCell id="KZhr2ZK5VhdK7OdCJB1y-10" style="edgeStyle=orthogonalEdgeStyle;rounded=0;orthogonalLoop=1;jettySize=auto;html=1;exitX=0.5;exitY=1;exitDx=0;exitDy=0;entryX=0.5;entryY=0;entryDx=0;entryDy=0;" edge="1" parent="1" source="KZhr2ZK5VhdK7OdCJB1y-2" target="KZhr2ZK5VhdK7OdCJB1y-9">
          <mxGeometry relative="1" as="geometry" />
        </mxCell>
        <mxCell id="KZhr2ZK5VhdK7OdCJB1y-2" value="Ucesnik" style="whiteSpace=wrap;html=1;align=center;" vertex="1" parent="1">
          <mxGeometry x="170" y="140" width="100" height="40" as="geometry" />
        </mxCell>
        <mxCell id="KZhr2ZK5VhdK7OdCJB1y-146" style="edgeStyle=orthogonalEdgeStyle;rounded=0;orthogonalLoop=1;jettySize=auto;html=1;exitX=1;exitY=0.5;exitDx=0;exitDy=0;entryX=0;entryY=0.5;entryDx=0;entryDy=0;" edge="1" parent="1" source="KZhr2ZK5VhdK7OdCJB1y-3" target="KZhr2ZK5VhdK7OdCJB1y-142">
          <mxGeometry relative="1" as="geometry" />
        </mxCell>
        <mxCell id="KZhr2ZK5VhdK7OdCJB1y-3" value="Sudija" style="whiteSpace=wrap;html=1;align=center;" vertex="1" parent="1">
          <mxGeometry x="405" y="318" width="100" height="40" as="geometry" />
        </mxCell>
        <mxCell id="KZhr2ZK5VhdK7OdCJB1y-21" style="edgeStyle=orthogonalEdgeStyle;rounded=0;orthogonalLoop=1;jettySize=auto;html=1;exitX=1;exitY=0.5;exitDx=0;exitDy=0;entryX=0;entryY=0.5;entryDx=0;entryDy=0;" edge="1" parent="1" source="KZhr2ZK5VhdK7OdCJB1y-4" target="KZhr2ZK5VhdK7OdCJB1y-19">
          <mxGeometry relative="1" as="geometry" />
        </mxCell>
        <mxCell id="KZhr2ZK5VhdK7OdCJB1y-56" style="edgeStyle=orthogonalEdgeStyle;rounded=0;orthogonalLoop=1;jettySize=auto;html=1;exitX=0.25;exitY=1;exitDx=0;exitDy=0;entryX=0.5;entryY=0;entryDx=0;entryDy=0;" edge="1" parent="1" source="KZhr2ZK5VhdK7OdCJB1y-4" target="KZhr2ZK5VhdK7OdCJB1y-52">
          <mxGeometry relative="1" as="geometry" />
        </mxCell>
        <mxCell id="KZhr2ZK5VhdK7OdCJB1y-4" value="Trener" style="whiteSpace=wrap;html=1;align=center;" vertex="1" parent="1">
          <mxGeometry x="-140" y="410" width="100" height="40" as="geometry" />
        </mxCell>
        <mxCell id="KZhr2ZK5VhdK7OdCJB1y-7" style="edgeStyle=orthogonalEdgeStyle;rounded=0;orthogonalLoop=1;jettySize=auto;html=1;exitX=0.25;exitY=1;exitDx=0;exitDy=0;entryX=1;entryY=0.5;entryDx=0;entryDy=0;" edge="1" parent="1" source="KZhr2ZK5VhdK7OdCJB1y-5" target="KZhr2ZK5VhdK7OdCJB1y-6">
          <mxGeometry relative="1" as="geometry" />
        </mxCell>
        <mxCell id="KZhr2ZK5VhdK7OdCJB1y-20" style="edgeStyle=orthogonalEdgeStyle;rounded=0;orthogonalLoop=1;jettySize=auto;html=1;exitX=0;exitY=0.5;exitDx=0;exitDy=0;entryX=1;entryY=0.5;entryDx=0;entryDy=0;" edge="1" parent="1" source="KZhr2ZK5VhdK7OdCJB1y-5" target="KZhr2ZK5VhdK7OdCJB1y-19">
          <mxGeometry relative="1" as="geometry" />
        </mxCell>
        <mxCell id="KZhr2ZK5VhdK7OdCJB1y-25" style="edgeStyle=orthogonalEdgeStyle;rounded=0;orthogonalLoop=1;jettySize=auto;html=1;exitX=1;exitY=0.75;exitDx=0;exitDy=0;entryX=0;entryY=0.5;entryDx=0;entryDy=0;" edge="1" parent="1" source="KZhr2ZK5VhdK7OdCJB1y-5" target="KZhr2ZK5VhdK7OdCJB1y-24">
          <mxGeometry relative="1" as="geometry" />
        </mxCell>
        <mxCell id="KZhr2ZK5VhdK7OdCJB1y-32" style="edgeStyle=orthogonalEdgeStyle;rounded=0;orthogonalLoop=1;jettySize=auto;html=1;exitX=0.75;exitY=1;exitDx=0;exitDy=0;entryX=0;entryY=0.5;entryDx=0;entryDy=0;" edge="1" parent="1" source="KZhr2ZK5VhdK7OdCJB1y-5" target="KZhr2ZK5VhdK7OdCJB1y-30">
          <mxGeometry relative="1" as="geometry">
            <Array as="points">
              <mxPoint x="190" y="450" />
              <mxPoint x="190" y="568" />
            </Array>
          </mxGeometry>
        </mxCell>
        <mxCell id="KZhr2ZK5VhdK7OdCJB1y-54" style="edgeStyle=orthogonalEdgeStyle;rounded=0;orthogonalLoop=1;jettySize=auto;html=1;exitX=0.5;exitY=1;exitDx=0;exitDy=0;entryX=0.5;entryY=0;entryDx=0;entryDy=0;" edge="1" parent="1" source="KZhr2ZK5VhdK7OdCJB1y-5" target="KZhr2ZK5VhdK7OdCJB1y-51">
          <mxGeometry relative="1" as="geometry" />
        </mxCell>
        <mxCell id="KZhr2ZK5VhdK7OdCJB1y-5" value="Igrac" style="whiteSpace=wrap;html=1;align=center;" vertex="1" parent="1">
          <mxGeometry x="100" y="410" width="100" height="40" as="geometry" />
        </mxCell>
        <mxCell id="KZhr2ZK5VhdK7OdCJB1y-8" style="edgeStyle=orthogonalEdgeStyle;rounded=0;orthogonalLoop=1;jettySize=auto;html=1;exitX=0;exitY=0.5;exitDx=0;exitDy=0;entryX=0.75;entryY=1;entryDx=0;entryDy=0;" edge="1" parent="1" source="KZhr2ZK5VhdK7OdCJB1y-6" target="KZhr2ZK5VhdK7OdCJB1y-4">
          <mxGeometry relative="1" as="geometry" />
        </mxCell>
        <mxCell id="KZhr2ZK5VhdK7OdCJB1y-6" value="Po zavrsuvanje kariera" style="shape=rhombus;perimeter=rhombusPerimeter;whiteSpace=wrap;html=1;align=center;" vertex="1" parent="1">
          <mxGeometry x="-10" y="525" width="100" height="50" as="geometry" />
        </mxCell>
        <mxCell id="KZhr2ZK5VhdK7OdCJB1y-12" style="edgeStyle=orthogonalEdgeStyle;rounded=0;orthogonalLoop=1;jettySize=auto;html=1;exitX=0;exitY=1;exitDx=0;exitDy=0;entryX=0.5;entryY=0;entryDx=0;entryDy=0;" edge="1" parent="1" source="KZhr2ZK5VhdK7OdCJB1y-9" target="KZhr2ZK5VhdK7OdCJB1y-11">
          <mxGeometry relative="1" as="geometry" />
        </mxCell>
        <mxCell id="KZhr2ZK5VhdK7OdCJB1y-13" style="edgeStyle=orthogonalEdgeStyle;rounded=0;orthogonalLoop=1;jettySize=auto;html=1;exitX=1;exitY=1;exitDx=0;exitDy=0;entryX=0.25;entryY=0;entryDx=0;entryDy=0;" edge="1" parent="1" source="KZhr2ZK5VhdK7OdCJB1y-9" target="KZhr2ZK5VhdK7OdCJB1y-3">
          <mxGeometry relative="1" as="geometry" />
        </mxCell>
        <mxCell id="KZhr2ZK5VhdK7OdCJB1y-9" value="d" style="ellipse;whiteSpace=wrap;html=1;align=center;" vertex="1" parent="1">
          <mxGeometry x="200" y="230" width="40" height="40" as="geometry" />
        </mxCell>
        <mxCell id="KZhr2ZK5VhdK7OdCJB1y-14" style="edgeStyle=orthogonalEdgeStyle;rounded=0;orthogonalLoop=1;jettySize=auto;html=1;exitX=0;exitY=1;exitDx=0;exitDy=0;entryX=0.75;entryY=0;entryDx=0;entryDy=0;" edge="1" parent="1" source="KZhr2ZK5VhdK7OdCJB1y-11" target="KZhr2ZK5VhdK7OdCJB1y-4">
          <mxGeometry relative="1" as="geometry" />
        </mxCell>
        <mxCell id="KZhr2ZK5VhdK7OdCJB1y-15" style="edgeStyle=orthogonalEdgeStyle;rounded=0;orthogonalLoop=1;jettySize=auto;html=1;exitX=1;exitY=1;exitDx=0;exitDy=0;entryX=0.25;entryY=0;entryDx=0;entryDy=0;" edge="1" parent="1" source="KZhr2ZK5VhdK7OdCJB1y-11" target="KZhr2ZK5VhdK7OdCJB1y-5">
          <mxGeometry relative="1" as="geometry" />
        </mxCell>
        <mxCell id="KZhr2ZK5VhdK7OdCJB1y-11" value="o" style="ellipse;whiteSpace=wrap;html=1;align=center;" vertex="1" parent="1">
          <mxGeometry x="30" y="310" width="40" height="40" as="geometry" />
        </mxCell>
        <mxCell id="KZhr2ZK5VhdK7OdCJB1y-26" style="edgeStyle=orthogonalEdgeStyle;rounded=0;orthogonalLoop=1;jettySize=auto;html=1;exitX=0;exitY=0.75;exitDx=0;exitDy=0;entryX=1;entryY=0.5;entryDx=0;entryDy=0;" edge="1" parent="1" source="KZhr2ZK5VhdK7OdCJB1y-16" target="KZhr2ZK5VhdK7OdCJB1y-24">
          <mxGeometry relative="1" as="geometry" />
        </mxCell>
        <mxCell id="KZhr2ZK5VhdK7OdCJB1y-16" value="Rang Mesto" style="whiteSpace=wrap;html=1;align=center;" vertex="1" parent="1">
          <mxGeometry x="450" y="450" width="100" height="40" as="geometry" />
        </mxCell>
        <mxCell id="KZhr2ZK5VhdK7OdCJB1y-17" value="1" style="text;html=1;align=center;verticalAlign=middle;resizable=0;points=[];autosize=1;strokeColor=none;fillColor=none;" vertex="1" parent="1">
          <mxGeometry x="65" y="518" width="30" height="30" as="geometry" />
        </mxCell>
        <mxCell id="KZhr2ZK5VhdK7OdCJB1y-18" value="1" style="text;html=1;align=center;verticalAlign=middle;resizable=0;points=[];autosize=1;strokeColor=none;fillColor=none;" vertex="1" parent="1">
          <mxGeometry x="-10" y="508" width="30" height="30" as="geometry" />
        </mxCell>
        <mxCell id="KZhr2ZK5VhdK7OdCJB1y-19" value="" style="shape=rhombus;perimeter=rhombusPerimeter;whiteSpace=wrap;html=1;align=center;" vertex="1" parent="1">
          <mxGeometry x="10" y="400" width="40" height="60" as="geometry" />
        </mxCell>
        <mxCell id="KZhr2ZK5VhdK7OdCJB1y-22" value="1" style="text;html=1;align=center;verticalAlign=middle;resizable=0;points=[];autosize=1;strokeColor=none;fillColor=none;" vertex="1" parent="1">
          <mxGeometry x="-10" y="398" width="30" height="30" as="geometry" />
        </mxCell>
        <mxCell id="KZhr2ZK5VhdK7OdCJB1y-23" value="M" style="text;html=1;align=center;verticalAlign=middle;resizable=0;points=[];autosize=1;strokeColor=none;fillColor=none;" vertex="1" parent="1">
          <mxGeometry x="40" y="398" width="30" height="30" as="geometry" />
        </mxCell>
        <mxCell id="KZhr2ZK5VhdK7OdCJB1y-24" value="" style="shape=rhombus;perimeter=rhombusPerimeter;whiteSpace=wrap;html=1;align=center;" vertex="1" parent="1">
          <mxGeometry x="300" y="450" width="40" height="60" as="geometry" />
        </mxCell>
        <mxCell id="KZhr2ZK5VhdK7OdCJB1y-27" value="1" style="text;html=1;align=center;verticalAlign=middle;resizable=0;points=[];autosize=1;strokeColor=none;fillColor=none;" vertex="1" parent="1">
          <mxGeometry x="280" y="448" width="30" height="30" as="geometry" />
        </mxCell>
        <mxCell id="KZhr2ZK5VhdK7OdCJB1y-28" value="1" style="text;html=1;align=center;verticalAlign=middle;resizable=0;points=[];autosize=1;strokeColor=none;fillColor=none;" vertex="1" parent="1">
          <mxGeometry x="325" y="448" width="30" height="30" as="geometry" />
        </mxCell>
        <mxCell id="KZhr2ZK5VhdK7OdCJB1y-33" style="edgeStyle=orthogonalEdgeStyle;rounded=0;orthogonalLoop=1;jettySize=auto;html=1;exitX=0;exitY=0.5;exitDx=0;exitDy=0;entryX=1;entryY=0.5;entryDx=0;entryDy=0;" edge="1" parent="1" source="KZhr2ZK5VhdK7OdCJB1y-29" target="KZhr2ZK5VhdK7OdCJB1y-30">
          <mxGeometry relative="1" as="geometry" />
        </mxCell>
        <mxCell id="KZhr2ZK5VhdK7OdCJB1y-39" style="edgeStyle=orthogonalEdgeStyle;rounded=0;orthogonalLoop=1;jettySize=auto;html=1;exitX=1;exitY=0.5;exitDx=0;exitDy=0;entryX=0;entryY=0.5;entryDx=0;entryDy=0;" edge="1" parent="1" source="KZhr2ZK5VhdK7OdCJB1y-29" target="KZhr2ZK5VhdK7OdCJB1y-38">
          <mxGeometry relative="1" as="geometry" />
        </mxCell>
        <mxCell id="KZhr2ZK5VhdK7OdCJB1y-66" style="edgeStyle=orthogonalEdgeStyle;rounded=0;orthogonalLoop=1;jettySize=auto;html=1;exitX=0.75;exitY=0;exitDx=0;exitDy=0;entryX=0;entryY=0.5;entryDx=0;entryDy=0;" edge="1" parent="1" source="KZhr2ZK5VhdK7OdCJB1y-29" target="KZhr2ZK5VhdK7OdCJB1y-43">
          <mxGeometry relative="1" as="geometry">
            <Array as="points">
              <mxPoint x="465" y="530" />
              <mxPoint x="640" y="530" />
            </Array>
          </mxGeometry>
        </mxCell>
        <mxCell id="KZhr2ZK5VhdK7OdCJB1y-29" value="Turnir" style="whiteSpace=wrap;html=1;align=center;" vertex="1" parent="1">
          <mxGeometry x="390" y="575" width="100" height="40" as="geometry" />
        </mxCell>
        <mxCell id="KZhr2ZK5VhdK7OdCJB1y-30" value="Najdobar igrac" style="shape=rhombus;perimeter=rhombusPerimeter;whiteSpace=wrap;html=1;align=center;" vertex="1" parent="1">
          <mxGeometry x="250" y="538" width="40" height="60" as="geometry" />
        </mxCell>
        <mxCell id="KZhr2ZK5VhdK7OdCJB1y-55" style="edgeStyle=orthogonalEdgeStyle;rounded=0;orthogonalLoop=1;jettySize=auto;html=1;exitX=1;exitY=0.5;exitDx=0;exitDy=0;entryX=0.5;entryY=1;entryDx=0;entryDy=0;" edge="1" parent="1" source="KZhr2ZK5VhdK7OdCJB1y-31" target="KZhr2ZK5VhdK7OdCJB1y-51">
          <mxGeometry relative="1" as="geometry" />
        </mxCell>
        <mxCell id="KZhr2ZK5VhdK7OdCJB1y-57" style="edgeStyle=orthogonalEdgeStyle;rounded=0;orthogonalLoop=1;jettySize=auto;html=1;exitX=0;exitY=0.25;exitDx=0;exitDy=0;entryX=0.5;entryY=1;entryDx=0;entryDy=0;" edge="1" parent="1" source="KZhr2ZK5VhdK7OdCJB1y-31" target="KZhr2ZK5VhdK7OdCJB1y-52">
          <mxGeometry relative="1" as="geometry" />
        </mxCell>
        <mxCell id="KZhr2ZK5VhdK7OdCJB1y-59" style="edgeStyle=orthogonalEdgeStyle;rounded=0;orthogonalLoop=1;jettySize=auto;html=1;exitX=0.75;exitY=1;exitDx=0;exitDy=0;entryX=0;entryY=0.5;entryDx=0;entryDy=0;" edge="1" parent="1" source="KZhr2ZK5VhdK7OdCJB1y-31" target="KZhr2ZK5VhdK7OdCJB1y-53">
          <mxGeometry relative="1" as="geometry">
            <Array as="points">
              <mxPoint x="55" y="870" />
              <mxPoint x="350" y="870" />
            </Array>
          </mxGeometry>
        </mxCell>
        <mxCell id="KZhr2ZK5VhdK7OdCJB1y-31" value="Trening" style="whiteSpace=wrap;html=1;align=center;" vertex="1" parent="1">
          <mxGeometry x="-20" y="690" width="100" height="40" as="geometry" />
        </mxCell>
        <mxCell id="KZhr2ZK5VhdK7OdCJB1y-34" value="1" style="text;html=1;align=center;verticalAlign=middle;resizable=0;points=[];autosize=1;strokeColor=none;fillColor=none;" vertex="1" parent="1">
          <mxGeometry x="285" y="538" width="30" height="30" as="geometry" />
        </mxCell>
        <mxCell id="KZhr2ZK5VhdK7OdCJB1y-35" value="1" style="text;html=1;align=center;verticalAlign=middle;resizable=0;points=[];autosize=1;strokeColor=none;fillColor=none;" vertex="1" parent="1">
          <mxGeometry x="225" y="528" width="30" height="30" as="geometry" />
        </mxCell>
        <mxCell id="KZhr2ZK5VhdK7OdCJB1y-40" style="edgeStyle=orthogonalEdgeStyle;rounded=0;orthogonalLoop=1;jettySize=auto;html=1;exitX=0;exitY=0.5;exitDx=0;exitDy=0;entryX=1;entryY=0.5;entryDx=0;entryDy=0;" edge="1" parent="1" source="KZhr2ZK5VhdK7OdCJB1y-36" target="KZhr2ZK5VhdK7OdCJB1y-38">
          <mxGeometry relative="1" as="geometry" />
        </mxCell>
        <mxCell id="KZhr2ZK5VhdK7OdCJB1y-58" style="edgeStyle=orthogonalEdgeStyle;rounded=0;orthogonalLoop=1;jettySize=auto;html=1;exitX=0.75;exitY=1;exitDx=0;exitDy=0;entryX=1;entryY=0.5;entryDx=0;entryDy=0;" edge="1" parent="1" source="KZhr2ZK5VhdK7OdCJB1y-36" target="KZhr2ZK5VhdK7OdCJB1y-53">
          <mxGeometry relative="1" as="geometry">
            <Array as="points">
              <mxPoint x="820" y="615" />
              <mxPoint x="820" y="870" />
              <mxPoint x="390" y="870" />
            </Array>
          </mxGeometry>
        </mxCell>
        <mxCell id="KZhr2ZK5VhdK7OdCJB1y-36" value="Teren" style="whiteSpace=wrap;html=1;align=center;" vertex="1" parent="1">
          <mxGeometry x="730" y="575" width="100" height="40" as="geometry" />
        </mxCell>
        <mxCell id="KZhr2ZK5VhdK7OdCJB1y-45" style="edgeStyle=orthogonalEdgeStyle;rounded=0;orthogonalLoop=1;jettySize=auto;html=1;exitX=0;exitY=0.5;exitDx=0;exitDy=0;entryX=1;entryY=0.5;entryDx=0;entryDy=0;" edge="1" parent="1" source="KZhr2ZK5VhdK7OdCJB1y-37" target="KZhr2ZK5VhdK7OdCJB1y-43">
          <mxGeometry relative="1" as="geometry" />
        </mxCell>
        <mxCell id="KZhr2ZK5VhdK7OdCJB1y-69" style="edgeStyle=orthogonalEdgeStyle;rounded=0;orthogonalLoop=1;jettySize=auto;html=1;exitX=0.5;exitY=0;exitDx=0;exitDy=0;entryX=0.5;entryY=1;entryDx=0;entryDy=0;" edge="1" parent="1" source="KZhr2ZK5VhdK7OdCJB1y-37" target="KZhr2ZK5VhdK7OdCJB1y-68">
          <mxGeometry relative="1" as="geometry" />
        </mxCell>
        <mxCell id="KZhr2ZK5VhdK7OdCJB1y-145" style="edgeStyle=orthogonalEdgeStyle;rounded=0;orthogonalLoop=1;jettySize=auto;html=1;exitX=0.25;exitY=0;exitDx=0;exitDy=0;entryX=1;entryY=0.5;entryDx=0;entryDy=0;" edge="1" parent="1" source="KZhr2ZK5VhdK7OdCJB1y-37" target="KZhr2ZK5VhdK7OdCJB1y-142">
          <mxGeometry relative="1" as="geometry" />
        </mxCell>
        <mxCell id="KZhr2ZK5VhdK7OdCJB1y-37" value="Natprevar" style="whiteSpace=wrap;html=1;align=center;" vertex="1" parent="1">
          <mxGeometry x="770" y="420" width="100" height="40" as="geometry" />
        </mxCell>
        <mxCell id="KZhr2ZK5VhdK7OdCJB1y-38" value="" style="shape=rhombus;perimeter=rhombusPerimeter;whiteSpace=wrap;html=1;align=center;" vertex="1" parent="1">
          <mxGeometry x="600" y="565" width="40" height="60" as="geometry" />
        </mxCell>
        <mxCell id="KZhr2ZK5VhdK7OdCJB1y-41" value="M" style="text;html=1;align=center;verticalAlign=middle;resizable=0;points=[];autosize=1;strokeColor=none;fillColor=none;" vertex="1" parent="1">
          <mxGeometry x="580" y="558" width="30" height="30" as="geometry" />
        </mxCell>
        <mxCell id="KZhr2ZK5VhdK7OdCJB1y-42" value="1" style="text;html=1;align=center;verticalAlign=middle;resizable=0;points=[];autosize=1;strokeColor=none;fillColor=none;" vertex="1" parent="1">
          <mxGeometry x="625" y="558" width="30" height="30" as="geometry" />
        </mxCell>
        <mxCell id="KZhr2ZK5VhdK7OdCJB1y-43" value="" style="shape=rhombus;perimeter=rhombusPerimeter;whiteSpace=wrap;html=1;align=center;" vertex="1" parent="1">
          <mxGeometry x="640" y="473" width="40" height="60" as="geometry" />
        </mxCell>
        <mxCell id="KZhr2ZK5VhdK7OdCJB1y-46" value="M" style="text;html=1;align=center;verticalAlign=middle;resizable=0;points=[];autosize=1;strokeColor=none;fillColor=none;" vertex="1" parent="1">
          <mxGeometry x="625" y="470" width="30" height="30" as="geometry" />
        </mxCell>
        <mxCell id="KZhr2ZK5VhdK7OdCJB1y-47" value="N" style="text;html=1;align=center;verticalAlign=middle;resizable=0;points=[];autosize=1;strokeColor=none;fillColor=none;" vertex="1" parent="1">
          <mxGeometry x="670" y="465" width="30" height="30" as="geometry" />
        </mxCell>
        <mxCell id="KZhr2ZK5VhdK7OdCJB1y-50" style="edgeStyle=orthogonalEdgeStyle;rounded=0;orthogonalLoop=1;jettySize=auto;html=1;exitX=1;exitY=0;exitDx=0;exitDy=0;entryX=0;entryY=1;entryDx=0;entryDy=0;" edge="1" parent="1" source="KZhr2ZK5VhdK7OdCJB1y-49" target="KZhr2ZK5VhdK7OdCJB1y-31">
          <mxGeometry relative="1" as="geometry" />
        </mxCell>
        <mxCell id="KZhr2ZK5VhdK7OdCJB1y-49" value="Datum" style="ellipse;whiteSpace=wrap;html=1;align=center;" vertex="1" parent="1">
          <mxGeometry x="-170" y="800" width="100" height="40" as="geometry" />
        </mxCell>
        <mxCell id="KZhr2ZK5VhdK7OdCJB1y-51" value="" style="shape=rhombus;perimeter=rhombusPerimeter;whiteSpace=wrap;html=1;align=center;" vertex="1" parent="1">
          <mxGeometry x="140" y="615" width="40" height="60" as="geometry" />
        </mxCell>
        <mxCell id="KZhr2ZK5VhdK7OdCJB1y-52" value="" style="shape=rhombus;perimeter=rhombusPerimeter;whiteSpace=wrap;html=1;align=center;" vertex="1" parent="1">
          <mxGeometry x="-120" y="575" width="40" height="60" as="geometry" />
        </mxCell>
        <mxCell id="KZhr2ZK5VhdK7OdCJB1y-53" value="" style="shape=rhombus;perimeter=rhombusPerimeter;whiteSpace=wrap;html=1;align=center;" vertex="1" parent="1">
          <mxGeometry x="350" y="840" width="40" height="60" as="geometry" />
        </mxCell>
        <mxCell id="KZhr2ZK5VhdK7OdCJB1y-60" value="1" style="text;html=1;align=center;verticalAlign=middle;resizable=0;points=[];autosize=1;strokeColor=none;fillColor=none;" vertex="1" parent="1">
          <mxGeometry x="-105" y="558" width="30" height="30" as="geometry" />
        </mxCell>
        <mxCell id="KZhr2ZK5VhdK7OdCJB1y-61" value="1" style="text;html=1;align=center;verticalAlign=middle;resizable=0;points=[];autosize=1;strokeColor=none;fillColor=none;" vertex="1" parent="1">
          <mxGeometry x="-100" y="615" width="30" height="30" as="geometry" />
        </mxCell>
        <mxCell id="KZhr2ZK5VhdK7OdCJB1y-62" value="1" style="text;html=1;align=center;verticalAlign=middle;resizable=0;points=[];autosize=1;strokeColor=none;fillColor=none;" vertex="1" parent="1">
          <mxGeometry x="160" y="605" width="30" height="30" as="geometry" />
        </mxCell>
        <mxCell id="KZhr2ZK5VhdK7OdCJB1y-63" value="1" style="text;html=1;align=center;verticalAlign=middle;resizable=0;points=[];autosize=1;strokeColor=none;fillColor=none;" vertex="1" parent="1">
          <mxGeometry x="160" y="650" width="30" height="30" as="geometry" />
        </mxCell>
        <mxCell id="KZhr2ZK5VhdK7OdCJB1y-64" value="1" style="text;html=1;align=center;verticalAlign=middle;resizable=0;points=[];autosize=1;strokeColor=none;fillColor=none;" vertex="1" parent="1">
          <mxGeometry x="340" y="830" width="30" height="30" as="geometry" />
        </mxCell>
        <mxCell id="KZhr2ZK5VhdK7OdCJB1y-65" value="1" style="text;html=1;align=center;verticalAlign=middle;resizable=0;points=[];autosize=1;strokeColor=none;fillColor=none;" vertex="1" parent="1">
          <mxGeometry x="375" y="830" width="30" height="30" as="geometry" />
        </mxCell>
        <mxCell id="KZhr2ZK5VhdK7OdCJB1y-70" style="edgeStyle=orthogonalEdgeStyle;rounded=0;orthogonalLoop=1;jettySize=auto;html=1;exitX=0.5;exitY=1;exitDx=0;exitDy=0;entryX=0.5;entryY=0;entryDx=0;entryDy=0;" edge="1" parent="1" target="KZhr2ZK5VhdK7OdCJB1y-68">
          <mxGeometry relative="1" as="geometry">
            <mxPoint x="840" y="250" as="sourcePoint" />
          </mxGeometry>
        </mxCell>
        <mxCell id="KZhr2ZK5VhdK7OdCJB1y-68" value="" style="shape=rhombus;perimeter=rhombusPerimeter;whiteSpace=wrap;html=1;align=center;" vertex="1" parent="1">
          <mxGeometry x="820" y="300" width="40" height="60" as="geometry" />
        </mxCell>
        <mxCell id="KZhr2ZK5VhdK7OdCJB1y-71" value="1" style="text;html=1;align=center;verticalAlign=middle;resizable=0;points=[];autosize=1;strokeColor=none;fillColor=none;" vertex="1" parent="1">
          <mxGeometry x="845" y="288" width="30" height="30" as="geometry" />
        </mxCell>
        <mxCell id="KZhr2ZK5VhdK7OdCJB1y-72" value="1" style="text;html=1;align=center;verticalAlign=middle;resizable=0;points=[];autosize=1;strokeColor=none;fillColor=none;" vertex="1" parent="1">
          <mxGeometry x="845" y="338" width="30" height="30" as="geometry" />
        </mxCell>
        <mxCell id="KZhr2ZK5VhdK7OdCJB1y-76" style="edgeStyle=orthogonalEdgeStyle;rounded=0;orthogonalLoop=1;jettySize=auto;html=1;exitX=0.5;exitY=1;exitDx=0;exitDy=0;" edge="1" parent="1" source="KZhr2ZK5VhdK7OdCJB1y-73">
          <mxGeometry relative="1" as="geometry">
            <mxPoint x="840" y="210" as="targetPoint" />
          </mxGeometry>
        </mxCell>
        <mxCell id="KZhr2ZK5VhdK7OdCJB1y-73" value="Pobedi igrac B" style="ellipse;whiteSpace=wrap;html=1;align=center;" vertex="1" parent="1">
          <mxGeometry x="870" y="110" width="100" height="40" as="geometry" />
        </mxCell>
        <mxCell id="KZhr2ZK5VhdK7OdCJB1y-75" style="edgeStyle=orthogonalEdgeStyle;rounded=0;orthogonalLoop=1;jettySize=auto;html=1;exitX=0.5;exitY=1;exitDx=0;exitDy=0;entryX=0.5;entryY=0;entryDx=0;entryDy=0;" edge="1" parent="1" source="KZhr2ZK5VhdK7OdCJB1y-74">
          <mxGeometry relative="1" as="geometry">
            <mxPoint x="840" y="210" as="targetPoint" />
          </mxGeometry>
        </mxCell>
        <mxCell id="KZhr2ZK5VhdK7OdCJB1y-74" value="Pobedi igrac A" style="ellipse;whiteSpace=wrap;html=1;align=center;" vertex="1" parent="1">
          <mxGeometry x="710" y="110" width="100" height="40" as="geometry" />
        </mxCell>
        <mxCell id="KZhr2ZK5VhdK7OdCJB1y-77" value="H2H" style="shape=ext;margin=3;double=1;whiteSpace=wrap;html=1;align=center;" vertex="1" parent="1">
          <mxGeometry x="790" y="210" width="100" height="40" as="geometry" />
        </mxCell>
        <mxCell id="KZhr2ZK5VhdK7OdCJB1y-85" style="edgeStyle=orthogonalEdgeStyle;rounded=0;orthogonalLoop=1;jettySize=auto;html=1;exitX=0;exitY=0.5;exitDx=0;exitDy=0;entryX=0.5;entryY=0;entryDx=0;entryDy=0;" edge="1" parent="1" source="KZhr2ZK5VhdK7OdCJB1y-78" target="KZhr2ZK5VhdK7OdCJB1y-2">
          <mxGeometry relative="1" as="geometry" />
        </mxCell>
        <mxCell id="KZhr2ZK5VhdK7OdCJB1y-78" value="Datum ragjanje" style="ellipse;whiteSpace=wrap;html=1;align=center;" vertex="1" parent="1">
          <mxGeometry x="380" y="100" width="100" height="40" as="geometry" />
        </mxCell>
        <mxCell id="KZhr2ZK5VhdK7OdCJB1y-89" style="edgeStyle=orthogonalEdgeStyle;rounded=0;orthogonalLoop=1;jettySize=auto;html=1;exitX=1;exitY=1;exitDx=0;exitDy=0;entryX=0.5;entryY=0;entryDx=0;entryDy=0;" edge="1" parent="1" source="KZhr2ZK5VhdK7OdCJB1y-79" target="KZhr2ZK5VhdK7OdCJB1y-2">
          <mxGeometry relative="1" as="geometry" />
        </mxCell>
        <mxCell id="KZhr2ZK5VhdK7OdCJB1y-79" value="Ime" style="ellipse;whiteSpace=wrap;html=1;align=center;" vertex="1" parent="1">
          <mxGeometry x="-50" y="90" width="100" height="40" as="geometry" />
        </mxCell>
        <mxCell id="KZhr2ZK5VhdK7OdCJB1y-88" style="edgeStyle=orthogonalEdgeStyle;rounded=0;orthogonalLoop=1;jettySize=auto;html=1;exitX=1;exitY=1;exitDx=0;exitDy=0;" edge="1" parent="1" source="KZhr2ZK5VhdK7OdCJB1y-80">
          <mxGeometry relative="1" as="geometry">
            <mxPoint x="220" y="130" as="targetPoint" />
            <Array as="points">
              <mxPoint x="90" y="90" />
              <mxPoint x="221" y="90" />
            </Array>
          </mxGeometry>
        </mxCell>
        <mxCell id="KZhr2ZK5VhdK7OdCJB1y-80" value="Prezime" style="ellipse;whiteSpace=wrap;html=1;align=center;" vertex="1" parent="1">
          <mxGeometry x="5" y="40" width="100" height="40" as="geometry" />
        </mxCell>
        <mxCell id="KZhr2ZK5VhdK7OdCJB1y-87" style="edgeStyle=orthogonalEdgeStyle;rounded=0;orthogonalLoop=1;jettySize=auto;html=1;exitX=0.5;exitY=1;exitDx=0;exitDy=0;" edge="1" parent="1" source="KZhr2ZK5VhdK7OdCJB1y-81">
          <mxGeometry relative="1" as="geometry">
            <mxPoint x="220" y="140" as="targetPoint" />
          </mxGeometry>
        </mxCell>
        <mxCell id="KZhr2ZK5VhdK7OdCJB1y-81" value="Pasos" style="ellipse;whiteSpace=wrap;html=1;align=center;" vertex="1" parent="1">
          <mxGeometry x="110" y="10" width="100" height="40" as="geometry" />
        </mxCell>
        <mxCell id="KZhr2ZK5VhdK7OdCJB1y-84" style="edgeStyle=orthogonalEdgeStyle;rounded=0;orthogonalLoop=1;jettySize=auto;html=1;exitX=0;exitY=0.5;exitDx=0;exitDy=0;entryX=0.5;entryY=0;entryDx=0;entryDy=0;" edge="1" parent="1" source="KZhr2ZK5VhdK7OdCJB1y-82" target="KZhr2ZK5VhdK7OdCJB1y-2">
          <mxGeometry relative="1" as="geometry" />
        </mxCell>
        <mxCell id="KZhr2ZK5VhdK7OdCJB1y-82" value="Drzava" style="ellipse;whiteSpace=wrap;html=1;align=center;" vertex="1" parent="1">
          <mxGeometry x="355" y="40" width="100" height="40" as="geometry" />
        </mxCell>
        <mxCell id="KZhr2ZK5VhdK7OdCJB1y-86" style="edgeStyle=orthogonalEdgeStyle;rounded=0;orthogonalLoop=1;jettySize=auto;html=1;exitX=0.5;exitY=1;exitDx=0;exitDy=0;" edge="1" parent="1" source="KZhr2ZK5VhdK7OdCJB1y-83">
          <mxGeometry relative="1" as="geometry">
            <mxPoint x="220" y="140" as="targetPoint" />
            <Array as="points">
              <mxPoint x="290" y="60" />
              <mxPoint x="221" y="60" />
            </Array>
          </mxGeometry>
        </mxCell>
        <mxCell id="KZhr2ZK5VhdK7OdCJB1y-83" value="Pol" style="ellipse;whiteSpace=wrap;html=1;align=center;" vertex="1" parent="1">
          <mxGeometry x="240" y="10" width="100" height="40" as="geometry" />
        </mxCell>
        <mxCell id="KZhr2ZK5VhdK7OdCJB1y-91" style="edgeStyle=orthogonalEdgeStyle;rounded=0;orthogonalLoop=1;jettySize=auto;html=1;exitX=1;exitY=0;exitDx=0;exitDy=0;entryX=0.5;entryY=0;entryDx=0;entryDy=0;" edge="1" parent="1" source="KZhr2ZK5VhdK7OdCJB1y-90" target="KZhr2ZK5VhdK7OdCJB1y-2">
          <mxGeometry relative="1" as="geometry" />
        </mxCell>
        <mxCell id="KZhr2ZK5VhdK7OdCJB1y-90" value="&lt;u&gt;EMBG&lt;/u&gt;" style="ellipse;whiteSpace=wrap;html=1;align=center;" vertex="1" parent="1">
          <mxGeometry x="-45" y="150" width="100" height="40" as="geometry" />
        </mxCell>
        <mxCell id="KZhr2ZK5VhdK7OdCJB1y-93" style="edgeStyle=orthogonalEdgeStyle;rounded=0;orthogonalLoop=1;jettySize=auto;html=1;exitX=0;exitY=1;exitDx=0;exitDy=0;entryX=0.75;entryY=0;entryDx=0;entryDy=0;" edge="1" parent="1" source="KZhr2ZK5VhdK7OdCJB1y-92" target="KZhr2ZK5VhdK7OdCJB1y-5">
          <mxGeometry relative="1" as="geometry" />
        </mxCell>
        <mxCell id="KZhr2ZK5VhdK7OdCJB1y-92" value="Godina profi debut" style="ellipse;whiteSpace=wrap;html=1;align=center;" vertex="1" parent="1">
          <mxGeometry x="170" y="328" width="100" height="40" as="geometry" />
        </mxCell>
        <mxCell id="KZhr2ZK5VhdK7OdCJB1y-96" style="edgeStyle=orthogonalEdgeStyle;rounded=0;orthogonalLoop=1;jettySize=auto;html=1;exitX=0.5;exitY=1;exitDx=0;exitDy=0;entryX=0.5;entryY=0;entryDx=0;entryDy=0;" edge="1" parent="1" source="KZhr2ZK5VhdK7OdCJB1y-94" target="KZhr2ZK5VhdK7OdCJB1y-16">
          <mxGeometry relative="1" as="geometry">
            <Array as="points">
              <mxPoint x="455" y="430" />
              <mxPoint x="500" y="430" />
            </Array>
          </mxGeometry>
        </mxCell>
        <mxCell id="KZhr2ZK5VhdK7OdCJB1y-94" value="Poceten datum" style="ellipse;whiteSpace=wrap;html=1;align=center;" vertex="1" parent="1">
          <mxGeometry x="405" y="380" width="100" height="40" as="geometry" />
        </mxCell>
        <mxCell id="KZhr2ZK5VhdK7OdCJB1y-97" style="edgeStyle=orthogonalEdgeStyle;rounded=0;orthogonalLoop=1;jettySize=auto;html=1;exitX=0;exitY=1;exitDx=0;exitDy=0;" edge="1" parent="1" source="KZhr2ZK5VhdK7OdCJB1y-95">
          <mxGeometry relative="1" as="geometry">
            <mxPoint x="500" y="450" as="targetPoint" />
            <Array as="points">
              <mxPoint x="535" y="430" />
              <mxPoint x="500" y="430" />
              <mxPoint x="500" y="448" />
              <mxPoint x="501" y="448" />
            </Array>
          </mxGeometry>
        </mxCell>
        <mxCell id="KZhr2ZK5VhdK7OdCJB1y-95" value="Kraen datum" style="ellipse;whiteSpace=wrap;html=1;align=center;" vertex="1" parent="1">
          <mxGeometry x="520" y="388" width="100" height="40" as="geometry" />
        </mxCell>
        <mxCell id="KZhr2ZK5VhdK7OdCJB1y-99" style="edgeStyle=orthogonalEdgeStyle;rounded=0;orthogonalLoop=1;jettySize=auto;html=1;exitX=0;exitY=1;exitDx=0;exitDy=0;entryX=0.75;entryY=0;entryDx=0;entryDy=0;" edge="1" parent="1" source="KZhr2ZK5VhdK7OdCJB1y-98" target="KZhr2ZK5VhdK7OdCJB1y-3">
          <mxGeometry relative="1" as="geometry" />
        </mxCell>
        <mxCell id="KZhr2ZK5VhdK7OdCJB1y-98" value="Godini iskustvo" style="ellipse;whiteSpace=wrap;html=1;align=center;" vertex="1" parent="1">
          <mxGeometry x="530" y="260" width="100" height="40" as="geometry" />
        </mxCell>
        <mxCell id="KZhr2ZK5VhdK7OdCJB1y-103" style="edgeStyle=orthogonalEdgeStyle;rounded=0;orthogonalLoop=1;jettySize=auto;html=1;exitX=1;exitY=0;exitDx=0;exitDy=0;entryX=0.5;entryY=1;entryDx=0;entryDy=0;" edge="1" parent="1" source="KZhr2ZK5VhdK7OdCJB1y-100" target="KZhr2ZK5VhdK7OdCJB1y-29">
          <mxGeometry relative="1" as="geometry">
            <Array as="points">
              <mxPoint x="305" y="630" />
              <mxPoint x="440" y="630" />
            </Array>
          </mxGeometry>
        </mxCell>
        <mxCell id="KZhr2ZK5VhdK7OdCJB1y-100" value="Ime" style="ellipse;whiteSpace=wrap;html=1;align=center;" vertex="1" parent="1">
          <mxGeometry x="220" y="650" width="100" height="40" as="geometry" />
        </mxCell>
        <mxCell id="KZhr2ZK5VhdK7OdCJB1y-102" style="edgeStyle=orthogonalEdgeStyle;rounded=0;orthogonalLoop=1;jettySize=auto;html=1;exitX=0;exitY=0;exitDx=0;exitDy=0;entryX=0.5;entryY=1;entryDx=0;entryDy=0;" edge="1" parent="1" source="KZhr2ZK5VhdK7OdCJB1y-101" target="KZhr2ZK5VhdK7OdCJB1y-29">
          <mxGeometry relative="1" as="geometry">
            <Array as="points">
              <mxPoint x="525" y="630" />
              <mxPoint x="440" y="630" />
            </Array>
          </mxGeometry>
        </mxCell>
        <mxCell id="KZhr2ZK5VhdK7OdCJB1y-101" value="Tip" style="ellipse;whiteSpace=wrap;html=1;align=center;" vertex="1" parent="1">
          <mxGeometry x="440" y="655" width="100" height="40" as="geometry" />
        </mxCell>
        <mxCell id="KZhr2ZK5VhdK7OdCJB1y-118" style="edgeStyle=orthogonalEdgeStyle;rounded=0;orthogonalLoop=1;jettySize=auto;html=1;exitX=0.5;exitY=0;exitDx=0;exitDy=0;entryX=0.5;entryY=1;entryDx=0;entryDy=0;" edge="1" parent="1" source="KZhr2ZK5VhdK7OdCJB1y-104" target="KZhr2ZK5VhdK7OdCJB1y-29">
          <mxGeometry relative="1" as="geometry">
            <Array as="points">
              <mxPoint x="380" y="630" />
              <mxPoint x="440" y="630" />
            </Array>
          </mxGeometry>
        </mxCell>
        <mxCell id="KZhr2ZK5VhdK7OdCJB1y-104" value="&lt;u&gt;Turnir ID&lt;/u&gt;" style="ellipse;whiteSpace=wrap;html=1;align=center;" vertex="1" parent="1">
          <mxGeometry x="330" y="655" width="100" height="40" as="geometry" />
        </mxCell>
        <mxCell id="KZhr2ZK5VhdK7OdCJB1y-112" style="edgeStyle=orthogonalEdgeStyle;rounded=0;orthogonalLoop=1;jettySize=auto;html=1;exitX=0;exitY=1;exitDx=0;exitDy=0;entryX=1;entryY=0.25;entryDx=0;entryDy=0;" edge="1" parent="1" source="KZhr2ZK5VhdK7OdCJB1y-106" target="KZhr2ZK5VhdK7OdCJB1y-36">
          <mxGeometry relative="1" as="geometry" />
        </mxCell>
        <mxCell id="KZhr2ZK5VhdK7OdCJB1y-106" value="Ime" style="ellipse;whiteSpace=wrap;html=1;align=center;" vertex="1" parent="1">
          <mxGeometry x="890" y="528" width="100" height="40" as="geometry" />
        </mxCell>
        <mxCell id="KZhr2ZK5VhdK7OdCJB1y-111" style="edgeStyle=orthogonalEdgeStyle;rounded=0;orthogonalLoop=1;jettySize=auto;html=1;exitX=0;exitY=0.5;exitDx=0;exitDy=0;entryX=1;entryY=0.25;entryDx=0;entryDy=0;" edge="1" parent="1" source="KZhr2ZK5VhdK7OdCJB1y-107" target="KZhr2ZK5VhdK7OdCJB1y-36">
          <mxGeometry relative="1" as="geometry">
            <Array as="points">
              <mxPoint x="900" y="585" />
            </Array>
          </mxGeometry>
        </mxCell>
        <mxCell id="KZhr2ZK5VhdK7OdCJB1y-107" value="Tip" style="ellipse;whiteSpace=wrap;html=1;align=center;" vertex="1" parent="1">
          <mxGeometry x="900" y="574" width="100" height="40" as="geometry" />
        </mxCell>
        <mxCell id="KZhr2ZK5VhdK7OdCJB1y-113" style="edgeStyle=orthogonalEdgeStyle;rounded=0;orthogonalLoop=1;jettySize=auto;html=1;exitX=0;exitY=1;exitDx=0;exitDy=0;entryX=1;entryY=0.25;entryDx=0;entryDy=0;" edge="1" parent="1" source="KZhr2ZK5VhdK7OdCJB1y-108" target="KZhr2ZK5VhdK7OdCJB1y-36">
          <mxGeometry relative="1" as="geometry">
            <Array as="points">
              <mxPoint x="860" y="519" />
              <mxPoint x="860" y="585" />
            </Array>
          </mxGeometry>
        </mxCell>
        <mxCell id="KZhr2ZK5VhdK7OdCJB1y-108" value="&lt;u&gt;Teren ID&lt;/u&gt;" style="ellipse;whiteSpace=wrap;html=1;align=center;" vertex="1" parent="1">
          <mxGeometry x="870" y="485" width="100" height="40" as="geometry" />
        </mxCell>
        <mxCell id="KZhr2ZK5VhdK7OdCJB1y-110" style="edgeStyle=orthogonalEdgeStyle;rounded=0;orthogonalLoop=1;jettySize=auto;html=1;exitX=0;exitY=0;exitDx=0;exitDy=0;entryX=1;entryY=0.25;entryDx=0;entryDy=0;" edge="1" parent="1" source="KZhr2ZK5VhdK7OdCJB1y-109" target="KZhr2ZK5VhdK7OdCJB1y-36">
          <mxGeometry relative="1" as="geometry">
            <Array as="points">
              <mxPoint x="860" y="625" />
              <mxPoint x="860" y="585" />
            </Array>
          </mxGeometry>
        </mxCell>
        <mxCell id="KZhr2ZK5VhdK7OdCJB1y-109" value="Br sedista" style="ellipse;whiteSpace=wrap;html=1;align=center;" vertex="1" parent="1">
          <mxGeometry x="880" y="619" width="100" height="40" as="geometry" />
        </mxCell>
        <mxCell id="KZhr2ZK5VhdK7OdCJB1y-119" style="edgeStyle=orthogonalEdgeStyle;rounded=0;orthogonalLoop=1;jettySize=auto;html=1;exitX=0;exitY=0;exitDx=0;exitDy=0;entryX=0.5;entryY=1;entryDx=0;entryDy=0;" edge="1" parent="1" source="KZhr2ZK5VhdK7OdCJB1y-114" target="KZhr2ZK5VhdK7OdCJB1y-29">
          <mxGeometry relative="1" as="geometry">
            <Array as="points">
              <mxPoint x="585" y="630" />
              <mxPoint x="440" y="630" />
            </Array>
          </mxGeometry>
        </mxCell>
        <mxCell id="KZhr2ZK5VhdK7OdCJB1y-120" style="edgeStyle=orthogonalEdgeStyle;rounded=0;orthogonalLoop=1;jettySize=auto;html=1;exitX=0.5;exitY=1;exitDx=0;exitDy=0;entryX=1;entryY=0;entryDx=0;entryDy=0;" edge="1" parent="1" source="KZhr2ZK5VhdK7OdCJB1y-114" target="KZhr2ZK5VhdK7OdCJB1y-115">
          <mxGeometry relative="1" as="geometry" />
        </mxCell>
        <mxCell id="KZhr2ZK5VhdK7OdCJB1y-121" style="edgeStyle=orthogonalEdgeStyle;rounded=0;orthogonalLoop=1;jettySize=auto;html=1;exitX=0.5;exitY=1;exitDx=0;exitDy=0;entryX=0.5;entryY=0;entryDx=0;entryDy=0;" edge="1" parent="1" source="KZhr2ZK5VhdK7OdCJB1y-114" target="KZhr2ZK5VhdK7OdCJB1y-116">
          <mxGeometry relative="1" as="geometry" />
        </mxCell>
        <mxCell id="KZhr2ZK5VhdK7OdCJB1y-122" style="edgeStyle=orthogonalEdgeStyle;rounded=0;orthogonalLoop=1;jettySize=auto;html=1;exitX=0.5;exitY=1;exitDx=0;exitDy=0;entryX=0;entryY=0;entryDx=0;entryDy=0;" edge="1" parent="1" source="KZhr2ZK5VhdK7OdCJB1y-114" target="KZhr2ZK5VhdK7OdCJB1y-117">
          <mxGeometry relative="1" as="geometry" />
        </mxCell>
        <mxCell id="KZhr2ZK5VhdK7OdCJB1y-114" value="Godina" style="ellipse;whiteSpace=wrap;html=1;align=center;" vertex="1" parent="1">
          <mxGeometry x="570" y="659" width="100" height="40" as="geometry" />
        </mxCell>
        <mxCell id="KZhr2ZK5VhdK7OdCJB1y-115" value="Poceten datum" style="ellipse;whiteSpace=wrap;html=1;align=center;" vertex="1" parent="1">
          <mxGeometry x="470" y="740" width="100" height="40" as="geometry" />
        </mxCell>
        <mxCell id="KZhr2ZK5VhdK7OdCJB1y-116" value="Kraen datum" style="ellipse;whiteSpace=wrap;html=1;align=center;" vertex="1" parent="1">
          <mxGeometry x="580" y="760" width="100" height="40" as="geometry" />
        </mxCell>
        <mxCell id="KZhr2ZK5VhdK7OdCJB1y-117" value="Sponzori" style="ellipse;whiteSpace=wrap;html=1;align=center;" vertex="1" parent="1">
          <mxGeometry x="680" y="740" width="100" height="40" as="geometry" />
        </mxCell>
        <mxCell id="KZhr2ZK5VhdK7OdCJB1y-136" style="edgeStyle=orthogonalEdgeStyle;rounded=0;orthogonalLoop=1;jettySize=auto;html=1;exitX=0;exitY=1;exitDx=0;exitDy=0;" edge="1" parent="1" source="KZhr2ZK5VhdK7OdCJB1y-123">
          <mxGeometry relative="1" as="geometry">
            <mxPoint x="870" y="420" as="targetPoint" />
            <Array as="points">
              <mxPoint x="870" y="304" />
              <mxPoint x="870" y="365" />
              <mxPoint x="871" y="365" />
            </Array>
          </mxGeometry>
        </mxCell>
        <mxCell id="KZhr2ZK5VhdK7OdCJB1y-123" value="Krajno vreme" style="ellipse;whiteSpace=wrap;html=1;align=center;" vertex="1" parent="1">
          <mxGeometry x="880" y="270" width="100" height="40" as="geometry" />
        </mxCell>
        <mxCell id="KZhr2ZK5VhdK7OdCJB1y-131" style="edgeStyle=orthogonalEdgeStyle;rounded=0;orthogonalLoop=1;jettySize=auto;html=1;exitX=0;exitY=0;exitDx=0;exitDy=0;entryX=1;entryY=0.25;entryDx=0;entryDy=0;" edge="1" parent="1" source="KZhr2ZK5VhdK7OdCJB1y-124" target="KZhr2ZK5VhdK7OdCJB1y-37">
          <mxGeometry relative="1" as="geometry">
            <Array as="points">
              <mxPoint x="965" y="430" />
            </Array>
          </mxGeometry>
        </mxCell>
        <mxCell id="KZhr2ZK5VhdK7OdCJB1y-124" value="Pocetno vreme" style="ellipse;whiteSpace=wrap;html=1;align=center;" vertex="1" parent="1">
          <mxGeometry x="950" y="438" width="100" height="40" as="geometry" />
        </mxCell>
        <mxCell id="KZhr2ZK5VhdK7OdCJB1y-135" style="edgeStyle=orthogonalEdgeStyle;rounded=0;orthogonalLoop=1;jettySize=auto;html=1;exitX=0;exitY=1;exitDx=0;exitDy=0;" edge="1" parent="1" source="KZhr2ZK5VhdK7OdCJB1y-125">
          <mxGeometry relative="1" as="geometry">
            <mxPoint x="870" y="420" as="targetPoint" />
          </mxGeometry>
        </mxCell>
        <mxCell id="KZhr2ZK5VhdK7OdCJB1y-125" value="Igrac B" style="ellipse;whiteSpace=wrap;html=1;align=center;" vertex="1" parent="1">
          <mxGeometry x="940" y="298" width="100" height="40" as="geometry" />
        </mxCell>
        <mxCell id="KZhr2ZK5VhdK7OdCJB1y-134" style="edgeStyle=orthogonalEdgeStyle;rounded=0;orthogonalLoop=1;jettySize=auto;html=1;exitX=0;exitY=1;exitDx=0;exitDy=0;" edge="1" parent="1" source="KZhr2ZK5VhdK7OdCJB1y-126">
          <mxGeometry relative="1" as="geometry">
            <mxPoint x="870" y="420" as="targetPoint" />
            <Array as="points">
              <mxPoint x="871" y="364" />
            </Array>
          </mxGeometry>
        </mxCell>
        <mxCell id="KZhr2ZK5VhdK7OdCJB1y-126" value="Igrac A" style="ellipse;whiteSpace=wrap;html=1;align=center;" vertex="1" parent="1">
          <mxGeometry x="1000" y="330" width="100" height="40" as="geometry" />
        </mxCell>
        <mxCell id="KZhr2ZK5VhdK7OdCJB1y-133" style="edgeStyle=orthogonalEdgeStyle;rounded=0;orthogonalLoop=1;jettySize=auto;html=1;exitX=0;exitY=0.5;exitDx=0;exitDy=0;entryX=1;entryY=0;entryDx=0;entryDy=0;" edge="1" parent="1" source="KZhr2ZK5VhdK7OdCJB1y-127" target="KZhr2ZK5VhdK7OdCJB1y-37">
          <mxGeometry relative="1" as="geometry" />
        </mxCell>
        <mxCell id="KZhr2ZK5VhdK7OdCJB1y-127" value="Kraen rez" style="ellipse;whiteSpace=wrap;html=1;align=center;" vertex="1" parent="1">
          <mxGeometry x="1040" y="370" width="100" height="40" as="geometry" />
        </mxCell>
        <mxCell id="KZhr2ZK5VhdK7OdCJB1y-141" style="edgeStyle=orthogonalEdgeStyle;rounded=0;orthogonalLoop=1;jettySize=auto;html=1;exitX=0;exitY=0.5;exitDx=0;exitDy=0;" edge="1" parent="1" source="KZhr2ZK5VhdK7OdCJB1y-137">
          <mxGeometry relative="1" as="geometry">
            <mxPoint x="870" y="430" as="targetPoint" />
          </mxGeometry>
        </mxCell>
        <mxCell id="KZhr2ZK5VhdK7OdCJB1y-137" value="&lt;u&gt;Natprevar ID&lt;/u&gt;" style="ellipse;whiteSpace=wrap;html=1;align=center;" vertex="1" parent="1">
          <mxGeometry x="1030" y="410" width="100" height="40" as="geometry" />
        </mxCell>
        <mxCell id="KZhr2ZK5VhdK7OdCJB1y-140" style="edgeStyle=orthogonalEdgeStyle;rounded=0;orthogonalLoop=1;jettySize=auto;html=1;exitX=1;exitY=0;exitDx=0;exitDy=0;" edge="1" parent="1" source="KZhr2ZK5VhdK7OdCJB1y-139">
          <mxGeometry relative="1" as="geometry">
            <mxPoint x="-20" y="730" as="targetPoint" />
            <Array as="points">
              <mxPoint x="-20" y="846" />
            </Array>
          </mxGeometry>
        </mxCell>
        <mxCell id="KZhr2ZK5VhdK7OdCJB1y-139" value="&lt;u&gt;Trening ID&lt;/u&gt;" style="ellipse;whiteSpace=wrap;html=1;align=center;" vertex="1" parent="1">
          <mxGeometry x="-120" y="840" width="100" height="40" as="geometry" />
        </mxCell>
        <mxCell id="KZhr2ZK5VhdK7OdCJB1y-142" value="" style="shape=rhombus;perimeter=rhombusPerimeter;whiteSpace=wrap;html=1;align=center;" vertex="1" parent="1">
          <mxGeometry x="655" y="328" width="40" height="60" as="geometry" />
        </mxCell>
        <mxCell id="KZhr2ZK5VhdK7OdCJB1y-143" value="1" style="text;html=1;align=center;verticalAlign=middle;resizable=0;points=[];autosize=1;strokeColor=none;fillColor=none;" vertex="1" parent="1">
          <mxGeometry x="640" y="320" width="30" height="30" as="geometry" />
        </mxCell>
        <mxCell id="KZhr2ZK5VhdK7OdCJB1y-144" value="1" style="text;html=1;align=center;verticalAlign=middle;resizable=0;points=[];autosize=1;strokeColor=none;fillColor=none;" vertex="1" parent="1">
          <mxGeometry x="675" y="318" width="30" height="30" as="geometry" />
        </mxCell>
      </root>
    </mxGraphModel>
  </diagram>
</mxfile>
